<mxfile host="app.diagrams.net" modified="2024-02-13T10:56:07.754Z" agent="Mozilla/5.0 (Windows NT 10.0; Win64; x64) AppleWebKit/537.36 (KHTML, like Gecko) Chrome/121.0.0.0 Safari/537.36" etag="Ycx0JlL_Ga6B-NAINDjB" version="23.1.1" type="google">
  <diagram name="Страница — 1" id="yXJeaMvFoXF_CdNia8LF">
    <mxGraphModel dx="1434" dy="780" grid="1" gridSize="10" guides="1" tooltips="1" connect="1" arrows="1" fold="1" page="1" pageScale="1" pageWidth="827" pageHeight="1169" math="0" shadow="0">
      <root>
        <mxCell id="0" />
        <mxCell id="1" parent="0" />
        <mxCell id="WZh6ZhMA239aKEn7YsyJ-1" value="&lt;font style=&quot;font-size: 22px;&quot;&gt;VideoGrace Server&lt;/font&gt;" style="rounded=1;whiteSpace=wrap;html=1;fillColor=#d5e8d4;strokeColor=#82b366;strokeWidth=3;" parent="1" vertex="1">
          <mxGeometry x="40" y="40" width="150" height="360" as="geometry" />
        </mxCell>
        <mxCell id="WZh6ZhMA239aKEn7YsyJ-3" value="" style="ellipse;whiteSpace=wrap;html=1;aspect=fixed;fillColor=#f8cecc;strokeColor=#b85450;strokeWidth=2;" parent="1" vertex="1">
          <mxGeometry x="180" y="90" width="20" height="20" as="geometry" />
        </mxCell>
        <mxCell id="WZh6ZhMA239aKEn7YsyJ-4" value="&lt;font face=&quot;Helvetica&quot; style=&quot;font-size: 18px;&quot;&gt;8778 TCP&lt;/font&gt;" style="text;html=1;align=center;verticalAlign=middle;resizable=0;points=[];autosize=1;strokeColor=none;fillColor=none;" parent="1" vertex="1">
          <mxGeometry x="195" y="50" width="100" height="40" as="geometry" />
        </mxCell>
        <mxCell id="WZh6ZhMA239aKEn7YsyJ-5" value="" style="ellipse;whiteSpace=wrap;html=1;aspect=fixed;fillColor=#ffe6cc;strokeColor=#d79b00;strokeWidth=2;" parent="1" vertex="1">
          <mxGeometry x="180" y="160" width="20" height="20" as="geometry" />
        </mxCell>
        <mxCell id="WZh6ZhMA239aKEn7YsyJ-6" value="" style="ellipse;whiteSpace=wrap;html=1;aspect=fixed;fillColor=#ffe6cc;strokeColor=#d79b00;strokeWidth=2;" parent="1" vertex="1">
          <mxGeometry x="180" y="200" width="20" height="20" as="geometry" />
        </mxCell>
        <mxCell id="WZh6ZhMA239aKEn7YsyJ-7" value="" style="ellipse;whiteSpace=wrap;html=1;aspect=fixed;fillColor=#ffe6cc;strokeColor=#d79b00;strokeWidth=2;" parent="1" vertex="1">
          <mxGeometry x="180" y="240" width="20" height="20" as="geometry" />
        </mxCell>
        <mxCell id="WZh6ZhMA239aKEn7YsyJ-8" value="" style="ellipse;whiteSpace=wrap;html=1;aspect=fixed;fillColor=#ffe6cc;strokeColor=#d79b00;strokeWidth=2;" parent="1" vertex="1">
          <mxGeometry x="180" y="280" width="20" height="20" as="geometry" />
        </mxCell>
        <mxCell id="WZh6ZhMA239aKEn7YsyJ-9" value="&lt;font face=&quot;Helvetica&quot; style=&quot;font-size: 18px;&quot;&gt;8778 UDP&lt;/font&gt;" style="text;html=1;align=center;verticalAlign=middle;resizable=0;points=[];autosize=1;strokeColor=none;fillColor=none;" parent="1" vertex="1">
          <mxGeometry x="190" y="130" width="110" height="40" as="geometry" />
        </mxCell>
        <mxCell id="WZh6ZhMA239aKEn7YsyJ-10" value="&lt;font face=&quot;Helvetica&quot; style=&quot;font-size: 18px;&quot;&gt;8779 UDP&lt;/font&gt;" style="text;html=1;align=center;verticalAlign=middle;resizable=0;points=[];autosize=1;strokeColor=none;fillColor=none;" parent="1" vertex="1">
          <mxGeometry x="190" y="170" width="110" height="40" as="geometry" />
        </mxCell>
        <mxCell id="WZh6ZhMA239aKEn7YsyJ-11" value="&lt;font face=&quot;Helvetica&quot; style=&quot;font-size: 18px;&quot;&gt;8780 UDP&lt;/font&gt;" style="text;html=1;align=center;verticalAlign=middle;resizable=0;points=[];autosize=1;strokeColor=none;fillColor=none;" parent="1" vertex="1">
          <mxGeometry x="190" y="210" width="110" height="40" as="geometry" />
        </mxCell>
        <mxCell id="WZh6ZhMA239aKEn7YsyJ-12" value="&lt;font face=&quot;Helvetica&quot; style=&quot;font-size: 18px;&quot;&gt;8781 UDP&lt;/font&gt;" style="text;html=1;align=center;verticalAlign=middle;resizable=0;points=[];autosize=1;strokeColor=none;fillColor=none;" parent="1" vertex="1">
          <mxGeometry x="190" y="250" width="110" height="40" as="geometry" />
        </mxCell>
        <mxCell id="LGOXKoXr_TMhicI5hV2O-1" value="&lt;font style=&quot;font-size: 22px;&quot;&gt;192.168.1.3&lt;/font&gt;" style="text;html=1;align=center;verticalAlign=middle;resizable=0;points=[];autosize=1;strokeColor=none;fillColor=none;" vertex="1" parent="1">
          <mxGeometry x="40" y="410" width="140" height="40" as="geometry" />
        </mxCell>
        <mxCell id="LGOXKoXr_TMhicI5hV2O-2" value="&lt;font style=&quot;font-size: 21px;&quot;&gt;NAT Router&lt;/font&gt;" style="rounded=0;whiteSpace=wrap;html=1;strokeWidth=2;fillColor=#dae8fc;strokeColor=#6c8ebf;" vertex="1" parent="1">
          <mxGeometry x="350" y="40" width="120" height="360" as="geometry" />
        </mxCell>
        <mxCell id="LGOXKoXr_TMhicI5hV2O-3" value="" style="ellipse;whiteSpace=wrap;html=1;aspect=fixed;fillColor=#f8cecc;strokeColor=#b85450;strokeWidth=2;" vertex="1" parent="1">
          <mxGeometry x="460" y="90" width="20" height="20" as="geometry" />
        </mxCell>
        <mxCell id="LGOXKoXr_TMhicI5hV2O-4" value="&lt;font face=&quot;Helvetica&quot; style=&quot;font-size: 18px;&quot;&gt;8778 TCP&lt;/font&gt;" style="text;html=1;align=center;verticalAlign=middle;resizable=0;points=[];autosize=1;strokeColor=none;fillColor=none;" vertex="1" parent="1">
          <mxGeometry x="475" y="50" width="100" height="40" as="geometry" />
        </mxCell>
        <mxCell id="LGOXKoXr_TMhicI5hV2O-5" value="" style="ellipse;whiteSpace=wrap;html=1;aspect=fixed;fillColor=#ffe6cc;strokeColor=#d79b00;strokeWidth=2;" vertex="1" parent="1">
          <mxGeometry x="460" y="160" width="20" height="20" as="geometry" />
        </mxCell>
        <mxCell id="LGOXKoXr_TMhicI5hV2O-6" value="" style="ellipse;whiteSpace=wrap;html=1;aspect=fixed;fillColor=#ffe6cc;strokeColor=#d79b00;strokeWidth=2;" vertex="1" parent="1">
          <mxGeometry x="460" y="200" width="20" height="20" as="geometry" />
        </mxCell>
        <mxCell id="LGOXKoXr_TMhicI5hV2O-7" value="" style="ellipse;whiteSpace=wrap;html=1;aspect=fixed;fillColor=#ffe6cc;strokeColor=#d79b00;strokeWidth=2;" vertex="1" parent="1">
          <mxGeometry x="460" y="240" width="20" height="20" as="geometry" />
        </mxCell>
        <mxCell id="LGOXKoXr_TMhicI5hV2O-8" value="" style="ellipse;whiteSpace=wrap;html=1;aspect=fixed;fillColor=#ffe6cc;strokeColor=#d79b00;strokeWidth=2;" vertex="1" parent="1">
          <mxGeometry x="460" y="280" width="20" height="20" as="geometry" />
        </mxCell>
        <mxCell id="LGOXKoXr_TMhicI5hV2O-9" value="&lt;font face=&quot;Helvetica&quot; style=&quot;font-size: 18px;&quot;&gt;8778 UDP&lt;/font&gt;" style="text;html=1;align=center;verticalAlign=middle;resizable=0;points=[];autosize=1;strokeColor=none;fillColor=none;" vertex="1" parent="1">
          <mxGeometry x="470" y="130" width="110" height="40" as="geometry" />
        </mxCell>
        <mxCell id="LGOXKoXr_TMhicI5hV2O-10" value="&lt;font face=&quot;Helvetica&quot; style=&quot;font-size: 18px;&quot;&gt;8779 UDP&lt;/font&gt;" style="text;html=1;align=center;verticalAlign=middle;resizable=0;points=[];autosize=1;strokeColor=none;fillColor=none;" vertex="1" parent="1">
          <mxGeometry x="470" y="170" width="110" height="40" as="geometry" />
        </mxCell>
        <mxCell id="LGOXKoXr_TMhicI5hV2O-11" value="&lt;font face=&quot;Helvetica&quot; style=&quot;font-size: 18px;&quot;&gt;8780 UDP&lt;/font&gt;" style="text;html=1;align=center;verticalAlign=middle;resizable=0;points=[];autosize=1;strokeColor=none;fillColor=none;" vertex="1" parent="1">
          <mxGeometry x="470" y="210" width="110" height="40" as="geometry" />
        </mxCell>
        <mxCell id="LGOXKoXr_TMhicI5hV2O-12" value="&lt;font face=&quot;Helvetica&quot; style=&quot;font-size: 18px;&quot;&gt;8781 UDP&lt;/font&gt;" style="text;html=1;align=center;verticalAlign=middle;resizable=0;points=[];autosize=1;strokeColor=none;fillColor=none;" vertex="1" parent="1">
          <mxGeometry x="470" y="250" width="110" height="40" as="geometry" />
        </mxCell>
        <mxCell id="LGOXKoXr_TMhicI5hV2O-13" value="&lt;font style=&quot;font-size: 22px;&quot;&gt;91.81.15.12&lt;/font&gt;" style="text;html=1;align=center;verticalAlign=middle;resizable=0;points=[];autosize=1;strokeColor=none;fillColor=none;" vertex="1" parent="1">
          <mxGeometry x="344" y="410" width="140" height="40" as="geometry" />
        </mxCell>
        <mxCell id="LGOXKoXr_TMhicI5hV2O-14" value="" style="endArrow=classic;startArrow=classic;html=1;rounded=0;dashed=1;fillColor=#dae8fc;strokeColor=#6c8ebf;strokeWidth=2;" edge="1" parent="1" source="WZh6ZhMA239aKEn7YsyJ-3" target="LGOXKoXr_TMhicI5hV2O-3">
          <mxGeometry width="50" height="50" relative="1" as="geometry">
            <mxPoint x="390" y="410" as="sourcePoint" />
            <mxPoint x="440" y="360" as="targetPoint" />
          </mxGeometry>
        </mxCell>
        <mxCell id="LGOXKoXr_TMhicI5hV2O-15" value="" style="endArrow=classic;startArrow=classic;html=1;rounded=0;dashed=1;fillColor=#dae8fc;strokeColor=#6c8ebf;strokeWidth=2;" edge="1" parent="1">
          <mxGeometry width="50" height="50" relative="1" as="geometry">
            <mxPoint x="200" y="170" as="sourcePoint" />
            <mxPoint x="460" y="170" as="targetPoint" />
          </mxGeometry>
        </mxCell>
        <mxCell id="LGOXKoXr_TMhicI5hV2O-16" value="" style="endArrow=classic;startArrow=classic;html=1;rounded=0;dashed=1;fillColor=#dae8fc;strokeColor=#6c8ebf;strokeWidth=2;" edge="1" parent="1">
          <mxGeometry width="50" height="50" relative="1" as="geometry">
            <mxPoint x="200" y="209" as="sourcePoint" />
            <mxPoint x="460" y="209" as="targetPoint" />
          </mxGeometry>
        </mxCell>
        <mxCell id="LGOXKoXr_TMhicI5hV2O-17" value="" style="endArrow=classic;startArrow=classic;html=1;rounded=0;dashed=1;fillColor=#dae8fc;strokeColor=#6c8ebf;strokeWidth=2;" edge="1" parent="1">
          <mxGeometry width="50" height="50" relative="1" as="geometry">
            <mxPoint x="200" y="249.5" as="sourcePoint" />
            <mxPoint x="460" y="249.5" as="targetPoint" />
          </mxGeometry>
        </mxCell>
        <mxCell id="LGOXKoXr_TMhicI5hV2O-18" value="" style="endArrow=classic;startArrow=classic;html=1;rounded=0;dashed=1;fillColor=#dae8fc;strokeColor=#6c8ebf;strokeWidth=2;" edge="1" parent="1">
          <mxGeometry width="50" height="50" relative="1" as="geometry">
            <mxPoint x="200" y="290" as="sourcePoint" />
            <mxPoint x="460" y="290" as="targetPoint" />
          </mxGeometry>
        </mxCell>
      </root>
    </mxGraphModel>
  </diagram>
</mxfile>
